<?xml version="1.0" encoding="UTF-8"?>
<svg width="862.5" height="392.46" preserveAspectRatio="none" version="1.1" viewBox="0 0 862.5 392.46" xmlns="http://www.w3.org/2000/svg" xmlns:cc="http://creativecommons.org/ns#" xmlns:dc="http://purl.org/dc/elements/1.1/" xmlns:rdf="http://www.w3.org/1999/02/22-rdf-syntax-ns#">
 <metadata>
  <rdf:RDF>
   <cc:Work rdf:about="">
    <dc:format>image/svg+xml</dc:format>
    <dc:type rdf:resource="http://purl.org/dc/dcmitype/StillImage"/>
    <dc:title/>
   </cc:Work>
  </rdf:RDF>
 </metadata>
 <g transform="matrix(1,0,0,-1,-281.25,393.75)" clip-path="url(#clipPath3974)" fill="none" mask="url(#SvgjsMask1248)">
  <g mask="url(#SvgjsMask1249)">
   <path d="m737.5 112.5-50 50m50-25v75m-25 25 25 25v50m0-325v150l-25 25v125" stroke="rgba(245, 87, 87, 1)" stroke-width="4.17"/>
   <path d="m706.25 287.5a6.25 6.25 0 1 0 12.5 0 6.25 6.25 0 1 0-12.5 0zm-25-125a6.25 6.25 0 1 0 12.5 0 6.25 6.25 0 1 0-12.5 0zm50 50a6.25 6.25 0 1 0 12.5 0 6.25 6.25 0 1 0-12.5 0zm0 100a6.25 6.25 0 1 0 12.5 0 6.25 6.25 0 1 0-12.5 0z" fill="rgba(245, 87, 87, 1)"/>
   <path d="m687.5 12.5 25 25m-25-50v75" stroke="rgba(245, 87, 87, 1)" stroke-width="4.17"/>
   <path d="m681.25 62.5a6.25 6.25 0 1 0 12.5 0 6.25 6.25 0 1 0-12.5 0zm25-25a6.25 6.25 0 1 0 12.5 0 6.25 6.25 0 1 0-12.5 0z" fill="rgba(245, 87, 87, 1)"/>
   <path d="m762.5 337.5 25 25v25m-25-150 25 25v25m-25 25 50 50m-50-375v375" stroke="rgba(245, 87, 87, 1)" stroke-width="4.17"/>
   <path d="m756.25 362.5a6.25 6.25 0 1 0 12.5 0 6.25 6.25 0 1 0-12.5 0zm25 25a6.25 6.25 0 1 0 12.5 0 6.25 6.25 0 1 0-12.5 0zm0-100a6.25 6.25 0 1 0 12.5 0 6.25 6.25 0 1 0-12.5 0zm25 75a6.25 6.25 0 1 0 12.5 0 6.25 6.25 0 1 0-12.5 0z" fill="rgba(245, 87, 87, 1)"/>
   <path d="m662.5 62.5-25 25m25-100v100" stroke="rgba(245, 87, 87, 1)" stroke-width="4.17"/>
   <path d="m656.25 87.5a6.25 6.25 0 1 0 12.5 0 6.25 6.25 0 1 0-12.5 0zm-25 0a6.25 6.25 0 1 0 12.5 0 6.25 6.25 0 1 0-12.5 0z" fill="rgba(245, 87, 87, 1)"/>
   <path d="m787.5 87.5 25 25m-25 50 25 25v25l-25 25m0-100 50 50m-50-200v225" stroke="rgba(245, 87, 87, 1)" stroke-width="4.17"/>
   <path d="m781.25 212.5a6.25 6.25 0 1 0 12.5 0 6.25 6.25 0 1 0-12.5 0zm25-100a6.25 6.25 0 1 0 12.5 0 6.25 6.25 0 1 0-12.5 0zm-25 125a6.25 6.25 0 1 0 12.5 0 6.25 6.25 0 1 0-12.5 0zm50-50a6.25 6.25 0 1 0 12.5 0 6.25 6.25 0 1 0-12.5 0z" fill="rgba(245, 87, 87, 1)"/>
   <path d="m637.5-12.5v50" stroke="rgba(245, 87, 87, 1)" stroke-width="4.17"/>
   <path d="m631.25 37.5a6.25 6.25 0 1 0 12.5 0 6.25 6.25 0 1 0-12.5 0z" fill="rgba(245, 87, 87, 1)"/>
   <path d="m812.5 37.5 25 25v50m-25-100 25 25m-25-50v75" stroke="rgba(245, 87, 87, 1)" stroke-width="4.17"/>
   <path d="m806.25 62.5a6.25 6.25 0 1 0 12.5 0 6.25 6.25 0 1 0-12.5 0zm25 50a6.25 6.25 0 1 0 12.5 0 6.25 6.25 0 1 0-12.5 0zm0-75a6.25 6.25 0 1 0 12.5 0 6.25 6.25 0 1 0-12.5 0z" fill="rgba(245, 87, 87, 1)"/>
   <path d="m587.5 237.5 25 25v25m-25-25-25 25v75m25-200 25 25m0-200v75l-25 25v200" stroke="rgba(245, 87, 87, 1)" stroke-width="4.17"/>
   <path d="m581.25 287.5a6.25 6.25 0 1 0 12.5 0 6.25 6.25 0 1 0-12.5 0zm25 0a6.25 6.25 0 1 0 12.5 0 6.25 6.25 0 1 0-12.5 0zm-50 75a6.25 6.25 0 1 0 12.5 0 6.25 6.25 0 1 0-12.5 0zm50-175a6.25 6.25 0 1 0 12.5 0 6.25 6.25 0 1 0-12.5 0z" fill="rgba(245, 87, 87, 1)"/>
   <path d="m837.5-12.5 25 25v75" stroke="rgba(245, 87, 87, 1)" stroke-width="4.17"/>
   <path d="m856.25 87.5a6.25 6.25 0 1 0 12.5 0 6.25 6.25 0 1 0-12.5 0z" fill="rgba(245, 87, 87, 1)"/>
   <path d="m587.5-12.5v50" stroke="rgba(245, 87, 87, 1)" stroke-width="4.17"/>
   <path d="m581.25 37.5a6.25 6.25 0 1 0 12.5 0 6.25 6.25 0 1 0-12.5 0z" fill="rgba(245, 87, 87, 1)"/>
   <path d="m887.5 162.5-25 25v25l-25 25m50-25v50m0-150-25 25v25m0-175 25 25v200l-25 25" stroke="rgba(245, 87, 87, 1)" stroke-width="4.17"/>
   <path d="m856.25 237.5a6.25 6.25 0 1 0 12.5 0 6.25 6.25 0 1 0-12.5 0zm-25 0a6.25 6.25 0 1 0 12.5 0 6.25 6.25 0 1 0-12.5 0zm50 25a6.25 6.25 0 1 0 12.5 0 6.25 6.25 0 1 0-12.5 0zm-25-100a6.25 6.25 0 1 0 12.5 0 6.25 6.25 0 1 0-12.5 0z" fill="rgba(245, 87, 87, 1)"/>
   <path d="m562.5 87.5-25 25v25m25-100-25 25v25m25 75-50 50m50-225v250" stroke="rgba(245, 87, 87, 1)" stroke-width="4.17"/>
   <path d="m556.25 237.5a6.25 6.25 0 1 0 12.5 0 6.25 6.25 0 1 0-12.5 0zm-25-100a6.25 6.25 0 1 0 12.5 0 6.25 6.25 0 1 0-12.5 0zm0-50a6.25 6.25 0 1 0 12.5 0 6.25 6.25 0 1 0-12.5 0zm-25 125a6.25 6.25 0 1 0 12.5 0 6.25 6.25 0 1 0-12.5 0z" fill="rgba(245, 87, 87, 1)"/>
   <path d="m912.5 62.5 25 25m-25 50 25 25v25m-25-75 25 25m-50-150 25 25v225" stroke="rgba(245, 87, 87, 1)" stroke-width="4.17"/>
   <path d="m906.25 237.5a6.25 6.25 0 1 0 12.5 0 6.25 6.25 0 1 0-12.5 0zm25-150a6.25 6.25 0 1 0 12.5 0 6.25 6.25 0 1 0-12.5 0zm0 100a6.25 6.25 0 1 0 12.5 0 6.25 6.25 0 1 0-12.5 0zm0-50a6.25 6.25 0 1 0 12.5 0 6.25 6.25 0 1 0-12.5 0z" fill="rgba(245, 87, 87, 1)"/>
   <path d="m537.5-12.5v25" stroke="rgba(245, 87, 87, 1)" stroke-width="4.17"/>
   <path d="m531.25 12.5a6.25 6.25 0 1 0 12.5 0 6.25 6.25 0 1 0-12.5 0z" fill="rgba(245, 87, 87, 1)"/>
   <path d="m912.5-12.5 25 25v25" stroke="rgba(245, 87, 87, 1)" stroke-width="4.17"/>
   <path d="m931.25 37.5a6.25 6.25 0 1 0 12.5 0 6.25 6.25 0 1 0-12.5 0z" fill="rgba(245, 87, 87, 1)"/>
   <path d="m512.5 62.5-25 25v25m25 25-25 25v25m25-150-25 25m25-75v175" stroke="rgba(245, 87, 87, 1)" stroke-width="4.17"/>
   <path d="m506.25 162.5a6.25 6.25 0 1 0 12.5 0 6.25 6.25 0 1 0-12.5 0zm-25-50a6.25 6.25 0 1 0 12.5 0 6.25 6.25 0 1 0-12.5 0zm0 75a6.25 6.25 0 1 0 12.5 0 6.25 6.25 0 1 0-12.5 0zm0-125a6.25 6.25 0 1 0 12.5 0 6.25 6.25 0 1 0-12.5 0z" fill="rgba(245, 87, 87, 1)"/>
   <path d="m962.5 212.5 25 25v50m-25-100 25 25m-25-75 25 25v25l25 25m-75-225 25 25v225" stroke="rgba(245, 87, 87, 1)" stroke-width="4.17"/>
   <path d="m956.25 237.5a6.25 6.25 0 1 0 12.5 0 6.25 6.25 0 1 0-12.5 0zm25 50a6.25 6.25 0 1 0 12.5 0 6.25 6.25 0 1 0-12.5 0zm0-75a6.25 6.25 0 1 0 12.5 0 6.25 6.25 0 1 0-12.5 0zm25 0a6.25 6.25 0 1 0 12.5 0 6.25 6.25 0 1 0-12.5 0z" fill="rgba(245, 87, 87, 1)"/>
   <path d="m487.5-12.5v25l-25 25v75" stroke="rgba(245, 87, 87, 1)" stroke-width="4.17"/>
   <path d="m456.25 112.5a6.25 6.25 0 1 0 12.5 0 6.25 6.25 0 1 0-12.5 0z" fill="rgba(245, 87, 87, 1)"/>
   <path d="m987.5 12.5v100m-25-125 50 50v25" stroke="rgba(245, 87, 87, 1)" stroke-width="4.17"/>
   <path d="m1006.2 62.5a6.25 6.25 0 1 0 12.5 0 6.25 6.25 0 1 0-12.5 0zm-25 50a6.25 6.25 0 1 0 12.5 0 6.25 6.25 0 1 0-12.5 0z" fill="rgba(245, 87, 87, 1)"/>
   <path d="m437.5 62.5-25 25m25 25-25 25v75m50-225v25l-25 25v100" stroke="rgba(245, 87, 87, 1)" stroke-width="4.17"/>
   <path d="m431.25 137.5a6.25 6.25 0 1 0 12.5 0 6.25 6.25 0 1 0-12.5 0zm-25-50a6.25 6.25 0 1 0 12.5 0 6.25 6.25 0 1 0-12.5 0zm0 125a6.25 6.25 0 1 0 12.5 0 6.25 6.25 0 1 0-12.5 0z" fill="rgba(245, 87, 87, 1)"/>
   <path d="m1037.5 212.5 25 25v50m-25-50-25 25m25-125-25 25v25m-25-200 50 50v300" stroke="rgba(245, 87, 87, 1)" stroke-width="4.17"/>
   <path d="m1031.2 337.5a6.25 6.25 0 1 0 12.5 0 6.25 6.25 0 1 0-12.5 0zm25-50a6.25 6.25 0 1 0 12.5 0 6.25 6.25 0 1 0-12.5 0zm-50-25a6.25 6.25 0 1 0 12.5 0 6.25 6.25 0 1 0-12.5 0zm0-75a6.25 6.25 0 1 0 12.5 0 6.25 6.25 0 1 0-12.5 0z" fill="rgba(245, 87, 87, 1)"/>
   <path d="m437.5-12.5v25" stroke="rgba(245, 87, 87, 1)" stroke-width="4.17"/>
   <path d="m431.25 12.5a6.25 6.25 0 1 0 12.5 0 6.25 6.25 0 1 0-12.5 0z" fill="rgba(245, 87, 87, 1)"/>
   <path d="m1012.5-12.5 50 50v100" stroke="rgba(245, 87, 87, 1)" stroke-width="4.17"/>
   <path d="m1056.2 137.5a6.25 6.25 0 1 0 12.5 0 6.25 6.25 0 1 0-12.5 0z" fill="rgba(245, 87, 87, 1)"/>
   <path d="m387.5 37.5 25 25m-25 175v100m25-325v25m0-50v25l-25 25v200l-25 25v50" stroke="rgba(245, 87, 87, 1)" stroke-width="4.17"/>
   <path d="m356.25 312.5a6.25 6.25 0 1 0 12.5 0 6.25 6.25 0 1 0-12.5 0zm50-250a6.25 6.25 0 1 0 12.5 0 6.25 6.25 0 1 0-12.5 0zm-25 275a6.25 6.25 0 1 0 12.5 0 6.25 6.25 0 1 0-12.5 0zm25-300a6.25 6.25 0 1 0 12.5 0 6.25 6.25 0 1 0-12.5 0z" fill="rgba(245, 87, 87, 1)"/>
   <path d="m1087.5 287.5 25 25v25m-25-25-25 25v25l-25 25m50-200-25 25m25 0 50 50m-100-275 50 50v325" stroke="rgba(245, 87, 87, 1)" stroke-width="4.17"/>
   <path d="m1081.2 362.5a6.25 6.25 0 1 0 12.5 0 6.25 6.25 0 1 0-12.5 0zm25-25a6.25 6.25 0 1 0 12.5 0 6.25 6.25 0 1 0-12.5 0zm-75 50a6.25 6.25 0 1 0 12.5 0 6.25 6.25 0 1 0-12.5 0zm25-175a6.25 6.25 0 1 0 12.5 0 6.25 6.25 0 1 0-12.5 0zm75 50a6.25 6.25 0 1 0 12.5 0 6.25 6.25 0 1 0-12.5 0z" fill="rgba(245, 87, 87, 1)"/>
   <path d="m337.5 262.5-25 25v50m75-350v25l-25 25v200l-25 25v25" stroke="rgba(245, 87, 87, 1)" stroke-width="4.17"/>
   <path d="m331.25 287.5a6.25 6.25 0 1 0 12.5 0 6.25 6.25 0 1 0-12.5 0zm-25 50a6.25 6.25 0 1 0 12.5 0 6.25 6.25 0 1 0-12.5 0z" fill="rgba(245, 87, 87, 1)"/>
   <path d="m1112.5 37.5 25 25m-25 50 25 25m-75-150 50 50v125" stroke="rgba(245, 87, 87, 1)" stroke-width="4.17"/>
   <path d="m1106.2 162.5a6.25 6.25 0 1 0 12.5 0 6.25 6.25 0 1 0-12.5 0zm25-100a6.25 6.25 0 1 0 12.5 0 6.25 6.25 0 1 0-12.5 0zm0 75a6.25 6.25 0 1 0 12.5 0 6.25 6.25 0 1 0-12.5 0z" fill="rgba(245, 87, 87, 1)"/>
   <path d="m337.5 162.5-25 25v25m25-100-50 50v50m50-175-25 25v50l-25 25m75-150v25l-25 25v200" stroke="rgba(245, 87, 87, 1)" stroke-width="4.17"/>
   <path d="m331.25 237.5a6.25 6.25 0 1 0 12.5 0 6.25 6.25 0 1 0-12.5 0zm-25-25a6.25 6.25 0 1 0 12.5 0 6.25 6.25 0 1 0-12.5 0zm-25 0a6.25 6.25 0 1 0 12.5 0 6.25 6.25 0 1 0-12.5 0zm0-75a6.25 6.25 0 1 0 12.5 0 6.25 6.25 0 1 0-12.5 0z" fill="rgba(245, 87, 87, 1)"/>
  </g>
 </g>
 <defs>
  <mask id="SvgjsMask1248">
   <rect width="1440" height="560" fill="#fff"/>
  </mask>
  <mask id="SvgjsMask1249">
   <rect width="1440" height="560" fill="#fff"/>
   <path d="m709.37 287.5a3.13 3.13 0 1 0 6.26 0 3.13 3.13 0 1 0-6.26 0zm-25-125a3.13 3.13 0 1 0 6.26 0 3.13 3.13 0 1 0-6.26 0zm50 50a3.13 3.13 0 1 0 6.26 0 3.13 3.13 0 1 0-6.26 0zm0 100a3.13 3.13 0 1 0 6.26 0 3.13 3.13 0 1 0-6.26 0z"/>
   <path d="m684.37 62.5a3.13 3.13 0 1 0 6.26 0 3.13 3.13 0 1 0-6.26 0zm25-25a3.13 3.13 0 1 0 6.26 0 3.13 3.13 0 1 0-6.26 0z"/>
   <path d="m759.37 362.5a3.13 3.13 0 1 0 6.26 0 3.13 3.13 0 1 0-6.26 0zm25 25a3.13 3.13 0 1 0 6.26 0 3.13 3.13 0 1 0-6.26 0zm0-100a3.13 3.13 0 1 0 6.26 0 3.13 3.13 0 1 0-6.26 0zm25 75a3.13 3.13 0 1 0 6.26 0 3.13 3.13 0 1 0-6.26 0z"/>
   <path d="m659.37 87.5a3.13 3.13 0 1 0 6.26 0 3.13 3.13 0 1 0-6.26 0zm-25 0a3.13 3.13 0 1 0 6.26 0 3.13 3.13 0 1 0-6.26 0z"/>
   <path d="m784.37 212.5a3.13 3.13 0 1 0 6.26 0 3.13 3.13 0 1 0-6.26 0zm25-100a3.13 3.13 0 1 0 6.26 0 3.13 3.13 0 1 0-6.26 0zm-25 125a3.13 3.13 0 1 0 6.26 0 3.13 3.13 0 1 0-6.26 0zm50-50a3.13 3.13 0 1 0 6.26 0 3.13 3.13 0 1 0-6.26 0z"/>
   <path d="m634.37 37.5a3.13 3.13 0 1 0 6.26 0 3.13 3.13 0 1 0-6.26 0z"/>
   <path d="m809.37 62.5a3.13 3.13 0 1 0 6.26 0 3.13 3.13 0 1 0-6.26 0zm25 50a3.13 3.13 0 1 0 6.26 0 3.13 3.13 0 1 0-6.26 0zm0-75a3.13 3.13 0 1 0 6.26 0 3.13 3.13 0 1 0-6.26 0z"/>
   <path d="m584.37 287.5a3.13 3.13 0 1 0 6.26 0 3.13 3.13 0 1 0-6.26 0zm25 0a3.13 3.13 0 1 0 6.26 0 3.13 3.13 0 1 0-6.26 0zm-50 75a3.13 3.13 0 1 0 6.26 0 3.13 3.13 0 1 0-6.26 0zm50-175a3.13 3.13 0 1 0 6.26 0 3.13 3.13 0 1 0-6.26 0z"/>
   <path d="m859.37 87.5a3.13 3.13 0 1 0 6.26 0 3.13 3.13 0 1 0-6.26 0z"/>
   <path d="m584.37 37.5a3.13 3.13 0 1 0 6.26 0 3.13 3.13 0 1 0-6.26 0z"/>
   <path d="m859.37 237.5a3.13 3.13 0 1 0 6.26 0 3.13 3.13 0 1 0-6.26 0zm-25 0a3.13 3.13 0 1 0 6.26 0 3.13 3.13 0 1 0-6.26 0zm50 25a3.13 3.13 0 1 0 6.26 0 3.13 3.13 0 1 0-6.26 0zm-25-100a3.13 3.13 0 1 0 6.26 0 3.13 3.13 0 1 0-6.26 0z"/>
   <path d="m559.37 237.5a3.13 3.13 0 1 0 6.26 0 3.13 3.13 0 1 0-6.26 0zm-25-100a3.13 3.13 0 1 0 6.26 0 3.13 3.13 0 1 0-6.26 0zm0-50a3.13 3.13 0 1 0 6.26 0 3.13 3.13 0 1 0-6.26 0zm-25 125a3.13 3.13 0 1 0 6.26 0 3.13 3.13 0 1 0-6.26 0z"/>
   <path d="m909.37 237.5a3.13 3.13 0 1 0 6.26 0 3.13 3.13 0 1 0-6.26 0zm25-150a3.13 3.13 0 1 0 6.26 0 3.13 3.13 0 1 0-6.26 0zm0 100a3.13 3.13 0 1 0 6.26 0 3.13 3.13 0 1 0-6.26 0zm0-50a3.13 3.13 0 1 0 6.26 0 3.13 3.13 0 1 0-6.26 0z"/>
   <path d="m534.37 12.5a3.13 3.13 0 1 0 6.26 0 3.13 3.13 0 1 0-6.26 0z"/>
   <path d="m934.37 37.5a3.13 3.13 0 1 0 6.26 0 3.13 3.13 0 1 0-6.26 0z"/>
   <path d="m509.37 162.5a3.13 3.13 0 1 0 6.26 0 3.13 3.13 0 1 0-6.26 0zm-25-50a3.13 3.13 0 1 0 6.26 0 3.13 3.13 0 1 0-6.26 0zm0 75a3.13 3.13 0 1 0 6.26 0 3.13 3.13 0 1 0-6.26 0zm0-125a3.13 3.13 0 1 0 6.26 0 3.13 3.13 0 1 0-6.26 0z"/>
   <path d="m959.37 237.5a3.13 3.13 0 1 0 6.26 0 3.13 3.13 0 1 0-6.26 0zm25 50a3.13 3.13 0 1 0 6.26 0 3.13 3.13 0 1 0-6.26 0zm0-75a3.13 3.13 0 1 0 6.26 0 3.13 3.13 0 1 0-6.26 0zm25 0a3.13 3.13 0 1 0 6.26 0 3.13 3.13 0 1 0-6.26 0z"/>
   <path d="m459.37 112.5a3.13 3.13 0 1 0 6.26 0 3.13 3.13 0 1 0-6.26 0z"/>
   <path d="m1009.4 62.5a3.13 3.13 0 1 0 6.26 0 3.13 3.13 0 1 0-6.26 0zm-25 50a3.13 3.13 0 1 0 6.26 0 3.13 3.13 0 1 0-6.26 0z"/>
   <path d="m434.37 137.5a3.13 3.13 0 1 0 6.26 0 3.13 3.13 0 1 0-6.26 0zm-25-50a3.13 3.13 0 1 0 6.26 0 3.13 3.13 0 1 0-6.26 0zm0 125a3.13 3.13 0 1 0 6.26 0 3.13 3.13 0 1 0-6.26 0z"/>
   <path d="m1034.4 337.5a3.13 3.13 0 1 0 6.26 0 3.13 3.13 0 1 0-6.26 0zm25-50a3.13 3.13 0 1 0 6.26 0 3.13 3.13 0 1 0-6.26 0zm-50-25a3.13 3.13 0 1 0 6.26 0 3.13 3.13 0 1 0-6.26 0zm0-75a3.13 3.13 0 1 0 6.26 0 3.13 3.13 0 1 0-6.26 0z"/>
   <path d="m434.37 12.5a3.13 3.13 0 1 0 6.26 0 3.13 3.13 0 1 0-6.26 0z"/>
   <path d="m1059.4 137.5a3.13 3.13 0 1 0 6.26 0 3.13 3.13 0 1 0-6.26 0z"/>
   <path d="m359.37 312.5a3.13 3.13 0 1 0 6.26 0 3.13 3.13 0 1 0-6.26 0zm50-250a3.13 3.13 0 1 0 6.26 0 3.13 3.13 0 1 0-6.26 0zm-25 275a3.13 3.13 0 1 0 6.26 0 3.13 3.13 0 1 0-6.26 0zm25-300a3.13 3.13 0 1 0 6.26 0 3.13 3.13 0 1 0-6.26 0z"/>
   <path d="m1084.4 362.5a3.13 3.13 0 1 0 6.26 0 3.13 3.13 0 1 0-6.26 0zm25-25a3.13 3.13 0 1 0 6.26 0 3.13 3.13 0 1 0-6.26 0zm-75 50a3.13 3.13 0 1 0 6.26 0 3.13 3.13 0 1 0-6.26 0zm25-175a3.13 3.13 0 1 0 6.26 0 3.13 3.13 0 1 0-6.26 0zm75 50a3.13 3.13 0 1 0 6.26 0 3.13 3.13 0 1 0-6.26 0z"/>
   <path d="m334.37 287.5a3.13 3.13 0 1 0 6.26 0 3.13 3.13 0 1 0-6.26 0zm-25 50a3.13 3.13 0 1 0 6.26 0 3.13 3.13 0 1 0-6.26 0z"/>
   <path d="m1109.4 162.5a3.13 3.13 0 1 0 6.26 0 3.13 3.13 0 1 0-6.26 0zm25-100a3.13 3.13 0 1 0 6.26 0 3.13 3.13 0 1 0-6.26 0zm0 75a3.13 3.13 0 1 0 6.26 0 3.13 3.13 0 1 0-6.26 0z"/>
   <path d="m334.37 237.5a3.13 3.13 0 1 0 6.26 0 3.13 3.13 0 1 0-6.26 0zm-25-25a3.13 3.13 0 1 0 6.26 0 3.13 3.13 0 1 0-6.26 0zm-25 0a3.13 3.13 0 1 0 6.26 0 3.13 3.13 0 1 0-6.26 0zm0-75a3.13 3.13 0 1 0 6.26 0 3.13 3.13 0 1 0-6.26 0z"/>
  </mask>
  <clipPath id="clipPath3974">
   <rect x=".6448" y="1.2909" width="1382.5" height="536.96" fill="#f55757" opacity=".4484" stroke="#f55757" stroke-linecap="round" stroke-linejoin="round" stroke-width="2"/>
  </clipPath>
 </defs>
</svg>
