<svg xmlns="http://www.w3.org/2000/svg" version="1.1" xmlns:xlink="http://www.w3.org/1999/xlink" xmlns:svgjs="http://svgjs.com/svgjs" width="720" height="360" preserveAspectRatio="none" viewBox="0 0 720 360"><g mask="url(&quot;#SvgjsMask2109&quot;)" fill="none"><g transform="translate(0, 0)"><use xlink:href="#SvgjsPath2110" x="12" y="180" fill="rgba(245, 87, 87, 1)"></use><use xlink:href="#SvgjsPath2111" x="36" y="180" fill="rgba(245, 87, 87, 1)"></use><use xlink:href="#SvgjsPath2112" x="60" y="180" fill="rgba(245, 87, 87, 1)"></use><use xlink:href="#SvgjsPath2113" x="84" y="180" fill="rgba(245, 87, 87, 1)"></use><use xlink:href="#SvgjsPath2113" x="108" y="180" fill="rgba(245, 87, 87, 1)"></use><use xlink:href="#SvgjsPath2114" x="132" y="180" fill="rgba(245, 87, 87, 1)"></use><use xlink:href="#SvgjsPath2112" x="156" y="180" fill="rgba(245, 87, 87, 1)"></use><use xlink:href="#SvgjsPath2111" x="180" y="180" fill="rgba(245, 87, 87, 1)"></use><use xlink:href="#SvgjsPath2111" x="204" y="180" fill="rgba(245, 87, 87, 1)"></use><use xlink:href="#SvgjsPath2110" x="228" y="180" fill="rgba(245, 87, 87, 1)"></use><use xlink:href="#SvgjsPath2111" x="252" y="180" fill="rgba(245, 87, 87, 1)"></use><use xlink:href="#SvgjsPath2115" x="276" y="180" fill="rgba(245, 87, 87, 1)"></use><use xlink:href="#SvgjsPath2113" x="300" y="180" fill="rgba(245, 87, 87, 1)"></use><use xlink:href="#SvgjsPath2110" x="324" y="180" fill="rgba(245, 87, 87, 1)"></use><use xlink:href="#SvgjsPath2115" x="348" y="180" fill="rgba(245, 87, 87, 1)"></use><use xlink:href="#SvgjsPath2110" x="372" y="180" fill="rgba(245, 87, 87, 1)"></use><use xlink:href="#SvgjsPath2110" x="396" y="180" fill="rgba(245, 87, 87, 1)"></use><use xlink:href="#SvgjsPath2111" x="420" y="180" fill="rgba(245, 87, 87, 1)"></use><use xlink:href="#SvgjsPath2114" x="444" y="180" fill="rgba(245, 87, 87, 1)"></use><use xlink:href="#SvgjsPath2111" x="468" y="180" fill="rgba(245, 87, 87, 1)"></use><use xlink:href="#SvgjsPath2115" x="492" y="180" fill="rgba(245, 87, 87, 1)"></use><use xlink:href="#SvgjsPath2111" x="516" y="180" fill="rgba(245, 87, 87, 1)"></use><use xlink:href="#SvgjsPath2115" x="540" y="180" fill="rgba(245, 87, 87, 1)"></use><use xlink:href="#SvgjsPath2116" x="564" y="180" fill="rgba(245, 87, 87, 1)"></use><use xlink:href="#SvgjsPath2111" x="588" y="180" fill="rgba(245, 87, 87, 1)"></use><use xlink:href="#SvgjsPath2110" x="612" y="180" fill="rgba(245, 87, 87, 1)"></use><use xlink:href="#SvgjsPath2113" x="636" y="180" fill="rgba(245, 87, 87, 1)"></use><use xlink:href="#SvgjsPath2114" x="660" y="180" fill="rgba(245, 87, 87, 1)"></use><use xlink:href="#SvgjsPath2116" x="684" y="180" fill="rgba(245, 87, 87, 1)"></use><use xlink:href="#SvgjsPath2110" x="708" y="180" fill="rgba(245, 87, 87, 1)"></use></g></g><defs><mask id="SvgjsMask2109"><rect width="720" height="360" fill="#ffffff"></rect></mask><path d="M-9.6 0 a9.6 9.6 0 1 0 19.2 0 a9.6 9.6 0 1 0 -19.2 0zM-9.6 24 a9.6 9.6 0 1 0 19.2 0 a9.6 9.6 0 1 0 -19.2 0zM-9.6 -24 a9.6 9.6 0 1 0 19.2 0 a9.6 9.6 0 1 0 -19.2 0z" id="SvgjsPath2114"></path><path d="M-9.6 0 a9.6 9.6 0 1 0 19.2 0 a9.6 9.6 0 1 0 -19.2 0zM-9.6 24 a9.6 9.6 0 1 0 19.2 0 a9.6 9.6 0 1 0 -19.2 0zM-9.6 -24 a9.6 9.6 0 1 0 19.2 0 a9.6 9.6 0 1 0 -19.2 0zM-9.6 48 a9.6 9.6 0 1 0 19.2 0 a9.6 9.6 0 1 0 -19.2 0zM-9.6 -48 a9.6 9.6 0 1 0 19.2 0 a9.6 9.6 0 1 0 -19.2 0z" id="SvgjsPath2116"></path><path d="M-9.6 0 a9.6 9.6 0 1 0 19.2 0 a9.6 9.6 0 1 0 -19.2 0zM-9.6 24 a9.6 9.6 0 1 0 19.2 0 a9.6 9.6 0 1 0 -19.2 0zM-9.6 -24 a9.6 9.6 0 1 0 19.2 0 a9.6 9.6 0 1 0 -19.2 0zM-9.6 48 a9.6 9.6 0 1 0 19.2 0 a9.6 9.6 0 1 0 -19.2 0zM-9.6 -48 a9.6 9.6 0 1 0 19.2 0 a9.6 9.6 0 1 0 -19.2 0zM-9.6 72 a9.6 9.6 0 1 0 19.2 0 a9.6 9.6 0 1 0 -19.2 0zM-9.6 -72 a9.6 9.6 0 1 0 19.2 0 a9.6 9.6 0 1 0 -19.2 0z" id="SvgjsPath2111"></path><path d="M-9.6 0 a9.6 9.6 0 1 0 19.2 0 a9.6 9.6 0 1 0 -19.2 0zM-9.6 24 a9.6 9.6 0 1 0 19.2 0 a9.6 9.6 0 1 0 -19.2 0zM-9.6 -24 a9.6 9.6 0 1 0 19.2 0 a9.6 9.6 0 1 0 -19.2 0zM-9.6 48 a9.6 9.6 0 1 0 19.2 0 a9.6 9.6 0 1 0 -19.2 0zM-9.6 -48 a9.6 9.6 0 1 0 19.2 0 a9.6 9.6 0 1 0 -19.2 0zM-9.6 72 a9.6 9.6 0 1 0 19.2 0 a9.6 9.6 0 1 0 -19.2 0zM-9.6 -72 a9.6 9.6 0 1 0 19.2 0 a9.6 9.6 0 1 0 -19.2 0zM-9.6 96 a9.6 9.6 0 1 0 19.2 0 a9.6 9.6 0 1 0 -19.2 0zM-9.6 -96 a9.6 9.6 0 1 0 19.2 0 a9.6 9.6 0 1 0 -19.2 0z" id="SvgjsPath2112"></path><path d="M-9.6 0 a9.6 9.6 0 1 0 19.2 0 a9.6 9.6 0 1 0 -19.2 0zM-9.6 24 a9.6 9.6 0 1 0 19.2 0 a9.6 9.6 0 1 0 -19.2 0zM-9.6 -24 a9.6 9.6 0 1 0 19.2 0 a9.6 9.6 0 1 0 -19.2 0zM-9.6 48 a9.6 9.6 0 1 0 19.2 0 a9.6 9.6 0 1 0 -19.2 0zM-9.6 -48 a9.6 9.6 0 1 0 19.2 0 a9.6 9.6 0 1 0 -19.2 0zM-9.6 72 a9.6 9.6 0 1 0 19.2 0 a9.6 9.6 0 1 0 -19.2 0zM-9.6 -72 a9.6 9.6 0 1 0 19.2 0 a9.6 9.6 0 1 0 -19.2 0zM-9.6 96 a9.6 9.6 0 1 0 19.2 0 a9.6 9.6 0 1 0 -19.2 0zM-9.6 -96 a9.6 9.6 0 1 0 19.2 0 a9.6 9.6 0 1 0 -19.2 0zM-9.6 120 a9.6 9.6 0 1 0 19.2 0 a9.6 9.6 0 1 0 -19.2 0zM-9.6 -120 a9.6 9.6 0 1 0 19.2 0 a9.6 9.6 0 1 0 -19.2 0z" id="SvgjsPath2110"></path><path d="M-9.6 0 a9.6 9.6 0 1 0 19.2 0 a9.6 9.6 0 1 0 -19.2 0zM-9.6 24 a9.6 9.6 0 1 0 19.2 0 a9.6 9.6 0 1 0 -19.2 0zM-9.6 -24 a9.6 9.6 0 1 0 19.2 0 a9.6 9.6 0 1 0 -19.2 0zM-9.6 48 a9.6 9.6 0 1 0 19.2 0 a9.6 9.6 0 1 0 -19.2 0zM-9.6 -48 a9.6 9.6 0 1 0 19.2 0 a9.6 9.6 0 1 0 -19.2 0zM-9.6 72 a9.6 9.6 0 1 0 19.2 0 a9.6 9.6 0 1 0 -19.2 0zM-9.6 -72 a9.6 9.6 0 1 0 19.2 0 a9.6 9.6 0 1 0 -19.2 0zM-9.6 96 a9.6 9.6 0 1 0 19.2 0 a9.6 9.6 0 1 0 -19.2 0zM-9.6 -96 a9.6 9.6 0 1 0 19.2 0 a9.6 9.6 0 1 0 -19.2 0zM-9.6 120 a9.6 9.6 0 1 0 19.2 0 a9.6 9.6 0 1 0 -19.2 0zM-9.6 -120 a9.6 9.6 0 1 0 19.2 0 a9.6 9.6 0 1 0 -19.2 0zM-9.6 144 a9.6 9.6 0 1 0 19.2 0 a9.6 9.6 0 1 0 -19.2 0zM-9.6 -144 a9.6 9.6 0 1 0 19.2 0 a9.6 9.6 0 1 0 -19.2 0z" id="SvgjsPath2115"></path><path d="M-9.6 0 a9.6 9.6 0 1 0 19.2 0 a9.6 9.6 0 1 0 -19.2 0zM-9.6 24 a9.6 9.6 0 1 0 19.2 0 a9.6 9.6 0 1 0 -19.2 0zM-9.6 -24 a9.6 9.6 0 1 0 19.2 0 a9.6 9.6 0 1 0 -19.2 0zM-9.6 48 a9.6 9.6 0 1 0 19.2 0 a9.6 9.6 0 1 0 -19.2 0zM-9.6 -48 a9.6 9.6 0 1 0 19.2 0 a9.6 9.6 0 1 0 -19.2 0zM-9.6 72 a9.6 9.6 0 1 0 19.2 0 a9.6 9.6 0 1 0 -19.2 0zM-9.6 -72 a9.6 9.6 0 1 0 19.2 0 a9.6 9.6 0 1 0 -19.2 0zM-9.6 96 a9.6 9.6 0 1 0 19.2 0 a9.6 9.6 0 1 0 -19.2 0zM-9.6 -96 a9.6 9.6 0 1 0 19.2 0 a9.6 9.6 0 1 0 -19.2 0zM-9.6 120 a9.6 9.6 0 1 0 19.2 0 a9.6 9.6 0 1 0 -19.2 0zM-9.6 -120 a9.6 9.6 0 1 0 19.2 0 a9.6 9.6 0 1 0 -19.2 0zM-9.6 144 a9.6 9.6 0 1 0 19.2 0 a9.6 9.6 0 1 0 -19.2 0zM-9.6 -144 a9.6 9.6 0 1 0 19.2 0 a9.6 9.6 0 1 0 -19.2 0zM-9.6 168 a9.6 9.6 0 1 0 19.2 0 a9.6 9.6 0 1 0 -19.2 0zM-9.6 -168 a9.6 9.6 0 1 0 19.2 0 a9.6 9.6 0 1 0 -19.2 0z" id="SvgjsPath2113"></path></defs></svg>