<svg xmlns="http://www.w3.org/2000/svg" version="1.1" xmlns:xlink="http://www.w3.org/1999/xlink" xmlns:svgjs="http://svgjs.com/svgjs" width="2560" height="320" preserveAspectRatio="none" viewBox="0 0 2560 320"><g mask="url(&quot;#SvgjsMask1363&quot;)" fill="none"><rect width="2560" height="320" x="0" y="0" fill="rgba(19, 22, 27, 1)"></rect><path d="M74 320L394 0L805 0L485 320z" fill="url(#SvgjsLinearGradient1364)"></path><path d="M465.40000000000003 320L785.4000000000001 0L1040.4 0L720.4000000000001 320z" fill="url(#SvgjsLinearGradient1364)"></path><path d="M910.8000000000001 320L1230.8000000000002 0L1643.3000000000002 0L1323.3000000000002 320z" fill="url(#SvgjsLinearGradient1364)"></path><path d="M1278.2 320L1598.2 0L2177.2 0L1857.2 320z" fill="url(#SvgjsLinearGradient1364)"></path><path d="M2538 320L2218 0L1861 0L2181 320z" fill="url(#SvgjsLinearGradient1365)"></path><path d="M2085.6 320L1765.6 0L1287.1 0L1607.1 320z" fill="url(#SvgjsLinearGradient1365)"></path><path d="M1674.1999999999998 320L1354.1999999999998 0L1130.6999999999998 0L1450.6999999999998 320z" fill="url(#SvgjsLinearGradient1365)"></path><path d="M1247.8 320L927.8 0L834.8 0L1154.8 320z" fill="url(#SvgjsLinearGradient1365)"></path><path d="M2329.6753315943993 320L2560 89.67533159439932L2560 320z" fill="url(#SvgjsLinearGradient1364)"></path><path d="M0 320L230.32466840560068 320L 0 89.67533159439932z" fill="url(#SvgjsLinearGradient1365)"></path></g><defs><mask id="SvgjsMask1363"><rect width="2560" height="320" fill="#ffffff"></rect></mask><linearGradient x1="0%" y1="100%" x2="100%" y2="0%" id="SvgjsLinearGradient1364"><stop stop-color="rgba(245, 87, 87, 1)" offset="0"></stop><stop stop-opacity="0" stop-color="rgba(245, 87, 87, 1)" offset="0.66"></stop></linearGradient><linearGradient x1="100%" y1="100%" x2="0%" y2="0%" id="SvgjsLinearGradient1365"><stop stop-color="rgba(245, 87, 87, 1)" offset="0"></stop><stop stop-opacity="0" stop-color="rgba(245, 87, 87, 1)" offset="0.66"></stop></linearGradient></defs></svg>